<svg width="26" height="23" viewBox="0 0 26 23" fill="none" xmlns="http://www.w3.org/2000/svg">
<path fill-rule="evenodd" clip-rule="evenodd" d="M0.247559 7.77895C0.247559 4.01871 3.18398 1.25415 6.81612 1.25415C9.43842 1.25415 11.6963 2.77564 12.7523 4.96777C13.8102 2.77743 16.0538 1.25415 18.679 1.25415C22.3096 1.25415 25.2476 3.99558 25.2476 7.77895C25.2476 9.64881 24.4615 11.4065 23.3391 12.967C22.2153 14.5294 20.7255 15.935 19.2442 17.1146C16.2816 19.4739 13.2699 20.9943 13.0364 21.1104L12.7476 21.2542L12.4587 21.1104C12.2252 20.9943 9.21348 19.4739 6.25091 17.1146C4.76957 15.935 3.27981 14.5294 2.15607 12.967C1.03363 11.4065 0.247559 9.64881 0.247559 7.77895ZM6.81612 2.50057C3.88677 2.50057 1.52184 4.70804 1.52184 7.77895C1.52184 9.30305 2.16431 10.8123 3.19826 12.2499C4.2309 13.6856 5.62539 15.0092 7.05545 16.1481C9.46287 18.0652 11.9125 19.4127 12.7476 19.8509C13.5827 19.4127 16.0322 18.0652 18.4397 16.1481C19.8697 15.0092 21.2642 13.6856 22.2968 12.2499C23.3308 10.8123 23.9733 9.30305 23.9733 7.77895C23.9733 4.68794 21.6099 2.50057 18.679 2.50057C15.8401 2.50057 13.5206 4.73216 13.384 7.54907L12.1109 7.54486C11.9941 4.73504 9.65869 2.50057 6.81612 2.50057Z" fill="black"/>
</svg>
