<svg width="40" height="40" viewBox="0 0 40 40" fill="none" xmlns="http://www.w3.org/2000/svg">
<path fill-rule="evenodd" clip-rule="evenodd" d="M20 0C8.9543 0 0 8.9543 0 20C0 31.0457 8.9543 40 20 40C31.0457 40 40 31.0457 40 20C40 8.9543 31.0457 0 20 0ZM15.6027 9.39778C16.7405 9.346 17.1041 9.33333 20.001 9.33333H19.9977C22.8955 9.33333 23.2577 9.346 24.3955 9.39778C25.5311 9.44978 26.3066 9.62956 26.9866 9.89334C27.6889 10.1656 28.2822 10.53 28.8755 11.1234C29.4689 11.7162 29.8333 12.3114 30.1067 13.0129C30.3689 13.6912 30.5489 14.4663 30.6022 15.6018C30.6533 16.7396 30.6667 17.1032 30.6667 20.0001C30.6667 22.897 30.6533 23.2597 30.6022 24.3975C30.5489 25.5326 30.3689 26.308 30.1067 26.9864C29.8333 27.6877 29.4689 28.2829 28.8755 28.8758C28.2829 29.4691 27.6886 29.8344 26.9873 30.1069C26.3086 30.3707 25.5326 30.5504 24.397 30.6024C23.2593 30.6542 22.8968 30.6669 19.9997 30.6669C17.103 30.6669 16.7396 30.6542 15.6018 30.6024C14.4665 30.5504 13.6912 30.3707 13.0125 30.1069C12.3114 29.8344 11.7162 29.4691 11.1236 28.8758C10.5305 28.2829 10.166 27.6877 9.89334 26.9862C9.62978 26.308 9.45 25.5328 9.39778 24.3973C9.34622 23.2595 9.33333 22.897 9.33333 20.0001C9.33333 17.1032 9.34667 16.7394 9.39756 15.6016C9.44867 14.4665 9.62867 13.6912 9.89312 13.0127C10.1665 12.3114 10.5309 11.7162 11.1242 11.1234C11.7171 10.5302 12.3123 10.1658 13.0138 9.89334C13.692 9.62956 14.4672 9.44978 15.6027 9.39778Z" fill="black"/>
<path fill-rule="evenodd" clip-rule="evenodd" d="M19.0441 11.2546C19.2299 11.2543 19.4298 11.2544 19.6455 11.2545L20.001 11.2546C22.849 11.2546 23.1866 11.2648 24.3113 11.316C25.3513 11.3635 25.9157 11.5373 26.2917 11.6833C26.7895 11.8766 27.1444 12.1077 27.5175 12.4811C27.8909 12.8544 28.122 13.21 28.3158 13.7078C28.4618 14.0833 28.6358 14.6478 28.6831 15.6878C28.7342 16.8122 28.7453 17.15 28.7453 19.9967C28.7453 22.8434 28.7342 23.1812 28.6831 24.3056C28.6355 25.3457 28.4618 25.9101 28.3158 26.2857C28.1224 26.7834 27.8909 27.1379 27.5175 27.511C27.1442 27.8843 26.7897 28.1155 26.2917 28.3088C25.9162 28.4555 25.3513 28.6288 24.3113 28.6764C23.1868 28.7275 22.849 28.7386 20.001 28.7386C17.1528 28.7386 16.8152 28.7275 15.6907 28.6764C14.6507 28.6284 14.0863 28.4546 13.7101 28.3086C13.2123 28.1152 12.8567 27.8841 12.4834 27.5108C12.11 27.1375 11.8789 26.7828 11.6851 26.2848C11.5391 25.9092 11.3651 25.3448 11.3178 24.3048C11.2667 23.1803 11.2565 22.8425 11.2565 19.994C11.2565 17.1456 11.2667 16.8096 11.3178 15.6851C11.3654 14.6451 11.5391 14.0806 11.6851 13.7046C11.8785 13.2069 12.11 12.8513 12.4834 12.478C12.8567 12.1046 13.2123 11.8735 13.7101 11.6797C14.0861 11.5331 14.6507 11.3597 15.6907 11.312C16.6747 11.2675 17.0561 11.2542 19.0441 11.252V11.2546ZM25.6948 13.0257C24.9882 13.0257 24.4148 13.5984 24.4148 14.3053C24.4148 15.012 24.9882 15.5853 25.6948 15.5853C26.4015 15.5853 26.9749 15.012 26.9749 14.3053C26.9749 13.5986 26.4015 13.0253 25.6948 13.0253V13.0257ZM14.5232 19.9992C14.5232 16.9741 16.9757 14.5214 20.0008 14.5213C23.0259 14.5213 25.478 16.974 25.478 19.9992C25.478 23.0243 23.0261 25.4759 20.001 25.4759C16.9759 25.4759 14.5232 23.0243 14.5232 19.9992Z" fill="black"/>
<path d="M20.001 16.4453C21.9646 16.4453 23.5566 18.0371 23.5566 20.0009C23.5566 21.9645 21.9646 23.5565 20.001 23.5565C18.0372 23.5565 16.4454 21.9645 16.4454 20.0009C16.4454 18.0371 18.0372 16.4453 20.001 16.4453V16.4453Z" fill="black"/>
</svg>
