<svg width="201" height="45" viewBox="0 0 201 45" fill="none" xmlns="http://www.w3.org/2000/svg">
<path d="M14.66 41.844C6.92 44.148 0.296 37.884 2.492 30.036C3.752 24.564 9.116 20.208 14.768 20.64C15.056 20.712 15.236 20.892 15.164 21.108C15.164 21.36 14.984 21.504 14.804 21.504C9.692 21.864 5.372 25.536 4.112 30.432C2.564 35.328 5.192 40.98 10.664 41.376C15.956 42.024 20.168 37.776 23.228 33.852C27.26 28.452 37.304 8.4 44.792 4.44C43.856 4.26 42.956 4.044 42.02 3.972C36.944 3.144 31.472 3.108 26.756 5.16C22.544 6.852 18.152 11.784 20.24 16.392C20.564 16.824 20.06 17.4 19.664 17.04C16.424 13.656 19.268 8.112 22.544 5.808C29.636 0.875999 38.744 2.748 46.736 3.756C47.204 3.72 47.672 3.72 48.104 3.864C48.176 3.864 48.176 3.864 48.284 3.972C48.464 4.008 48.572 4.476 48.356 4.584C48.176 4.728 48.212 4.656 48.104 4.728C47.672 4.764 47.24 4.764 46.844 4.728C40.76 6.348 28.844 28.992 24.164 34.608C21.608 37.632 18.548 40.656 14.66 41.844ZM56.508 20.856C56.652 21.036 56.616 21.288 56.508 21.468L55.968 21.828L55.536 22.116C55.5 22.116 55.5 22.152 55.5 22.152C53.88 23.844 51.864 25.5 50.964 27.588C51 27.768 51.252 27.804 51.432 27.876C53.736 28.56 56.148 27.768 58.38 27.408C63.672 26.148 69.216 24.6 73.644 21.468C73.896 21.36 74.112 21.36 74.292 21.576C74.904 22.728 67.668 25.5 66.624 25.896C64.032 26.832 61.332 27.624 58.632 28.2C56.148 28.74 53.664 29.136 51.18 29.136C50.712 29.064 50.136 28.92 49.812 28.56C49.2 27.588 49.344 26.688 49.884 25.86C45.348 28.74 40.02 31.656 37.788 30.792C36.744 29.712 38.076 28.092 38.688 27.192C42.54 21.792 49.488 19.2 55.788 20.964C55.968 20.82 56.292 20.604 56.508 20.856ZM38.292 30.108C38.688 30.288 39.336 30.108 39.84 30C42.396 29.208 44.7 27.876 47.004 26.544C49.668 24.996 52.224 23.376 54.78 21.648C49.092 21 40.164 25.032 38.292 30.108ZM71.3299 29.496C71.1499 29.496 70.9339 29.496 70.7539 29.352C70.5739 29.316 70.3939 28.956 70.3939 28.776C70.3939 28.2 70.5379 28.164 70.7539 27.768C72.3019 25.212 75.2539 23.592 77.0899 21.468L77.1259 21.396C76.2259 21.108 74.9299 21.576 74.1379 22.152C73.7059 22.512 73.1659 21.828 73.6339 21.468C74.8579 20.712 76.1179 19.92 77.6659 20.316C77.8459 20.424 78.0259 20.496 78.1339 20.712C78.4219 21.072 78.4219 21.54 78.3139 21.864C77.9539 22.872 77.0179 23.592 76.3339 24.348C75.1459 25.572 73.7779 26.724 72.5179 27.912C73.7059 27.48 75.0019 26.76 76.0099 26.328C79.0339 24.888 82.0579 23.376 85.3339 22.332C86.4139 22.116 87.6379 21.576 88.7179 22.116C90.6259 24.06 85.4419 26.472 84.1459 27.876C86.8099 27.156 89.1139 25.428 91.6699 24.348C93.3979 23.556 95.1259 22.512 97.1419 22.332C97.3579 22.332 97.7179 22.332 98.0419 22.584C99.5539 23.952 96.8899 26.328 96.2059 27.408C96.1699 27.516 96.1699 27.48 96.0979 27.408C95.9899 27.408 96.2059 27.48 96.2059 27.516C96.8539 27.804 97.8259 27.624 98.5099 27.48C103.298 26.364 108.086 24.348 112.154 21.468C112.586 21.144 113.09 21.828 112.622 22.152C108.41 25.104 103.658 27.12 98.6899 28.344C97.7539 28.38 96.8539 28.74 95.9179 28.632C95.4499 28.632 94.7299 28.092 94.7659 27.48C94.8379 25.68 96.5659 24.636 97.3579 23.376C97.4299 23.304 97.4659 23.376 97.4299 23.268C97.4299 23.268 97.3219 23.196 97.1419 23.196C95.3419 23.376 93.6859 24.348 91.9939 25.104C89.2579 26.364 86.7739 28.092 83.8219 28.956C80.6179 28.308 86.7379 23.844 87.7819 22.872C87.1699 22.584 86.2339 22.98 85.5499 23.16C80.6539 24.744 76.1179 27.408 71.3299 29.496ZM87.9979 22.98H88.0339H87.9979ZM131.462 30.288C123.398 32.52 126.638 26.364 129.518 22.584L129.662 22.332C128.186 21.828 125.918 22.656 124.334 23.088C120.194 24.348 116.234 26.076 112.454 28.164C112.418 28.236 112.346 28.236 112.274 28.272C112.166 28.308 112.058 28.272 111.95 28.2C111.446 27.984 111.554 27.228 111.734 26.832C112.526 24.456 114.938 23.448 116.198 21.576C115.19 20.964 113.498 21.576 112.598 22.152C112.13 22.512 111.662 21.756 112.13 21.468C113.57 20.388 118.358 19.524 117.062 22.62C116.162 24.276 114.65 25.392 113.39 26.724C117.854 24.384 130.778 18.948 131.138 22.116C131.534 23.88 125.558 29.532 128.186 29.892C131.354 29.892 134.486 28.488 137.402 27.408C141.434 25.788 145.43 23.952 148.922 21.468C149.174 21.36 149.39 21.36 149.57 21.576C150.254 22.404 144.566 25.032 143.738 25.5C139.814 27.48 135.746 29.208 131.462 30.288ZM145.266 29.136C144.798 29.064 144.222 28.92 143.898 28.56C141.99 25.608 147.354 23.16 149.01 21.54C149.406 21.144 149.946 21.756 149.586 22.152C147.966 23.844 145.95 25.5 145.05 27.588C145.086 27.768 145.338 27.804 145.518 27.876C147.822 28.56 150.234 27.768 152.466 27.408C157.758 26.148 163.302 24.6 167.73 21.468C167.982 21.36 168.198 21.36 168.378 21.576C168.99 22.728 161.754 25.5 160.71 25.896C158.118 26.832 155.418 27.624 152.718 28.2C150.234 28.74 147.75 29.136 145.266 29.136ZM153.51 14.664C153.618 14.448 153.906 14.34 154.086 14.448C155.238 15.096 156.786 15.096 155.814 13.476C155.562 13.116 156.03 12.216 156.57 12.252C157.938 12.324 157.83 14.808 156.786 15.384C155.742 15.996 154.698 15.6 153.726 15.204C153.51 15.132 153.402 14.844 153.51 14.664ZM189.978 25.968C188.754 25.86 187.602 25.608 186.45 25.5C185.946 25.464 185.982 24.636 186.522 24.636C190.482 24.312 196.314 24.132 200.382 24.06C200.634 24.024 200.814 24.24 200.85 24.456C200.85 24.636 200.67 24.816 200.526 24.888C197.07 25.68 193.47 26.148 189.978 25.968Z" fill="black"/>
</svg>
