<svg width="98" height="71" viewBox="0 0 98 71" fill="none" xmlns="http://www.w3.org/2000/svg">
<path d="M0.723875 35.4C0.723875 24.904 3.53988 16.52 9.17188 10.248C14.8679 3.912 22.2279 0.743998 31.2519 0.743998C40.4039 0.743998 47.7959 3.912 53.4279 10.248C59.1239 16.648 61.9719 25.032 61.9719 35.4C61.9719 45.896 59.1559 54.28 53.5239 60.552C47.8279 66.888 40.4359 70.056 31.3479 70.056C22.2599 70.056 14.8679 66.92 9.17188 60.648C3.53988 54.376 0.723875 45.96 0.723875 35.4ZM31.2519 68.808C37.5239 68.808 42.6439 65.736 46.6119 59.592C50.5799 53.32 52.5639 45.256 52.5639 35.4C52.5639 25.544 50.5799 17.512 46.6119 11.304C42.7079 5.096 37.5879 1.992 31.2519 1.992C24.9799 1.992 19.8919 5.096 15.9879 11.304C12.0199 17.512 10.0359 25.544 10.0359 35.4C10.0359 45.256 12.0199 53.32 15.9879 59.592C19.9559 65.736 25.0439 68.808 31.2519 68.808ZM86.6379 69H80.1099C80.0459 69 78.8299 69.032 76.4619 69.096C74.0939 69.224 71.9179 69.288 69.9339 69.288C69.7419 69.288 69.5819 69.192 69.4539 69C69.5179 68.808 69.6779 68.68 69.9339 68.616C71.5339 68.552 72.7179 68.488 73.4859 68.424C74.2539 68.296 75.0539 68.04 75.8859 67.656C76.7179 67.272 77.2619 66.856 77.5179 66.408C77.8379 65.896 78.1579 65.032 78.4779 63.816C78.7979 62.6 78.9899 61.32 79.0539 59.976C79.1819 58.568 79.2779 56.616 79.3419 54.12V8.712C76.6539 9.992 73.2299 10.984 69.0699 11.688C69.0059 11.688 68.9419 11.624 68.8779 11.496C68.8779 11.304 68.8779 11.144 68.8779 11.016C68.8779 10.824 68.9099 10.728 68.9739 10.728C77.5499 9.128 83.4379 6.088 86.6379 1.608C86.6379 1.48 86.7659 1.41599 87.0219 1.41599C87.3419 1.41599 87.5019 1.48 87.5019 1.608L87.4059 54.12C87.4699 56.296 87.5339 57.992 87.5979 59.208C87.7259 60.424 87.8539 61.64 87.9819 62.856C88.1099 64.008 88.3339 64.872 88.6539 65.448C89.0379 65.96 89.3899 66.472 89.7099 66.984C90.0299 67.432 90.5739 67.752 91.3419 67.944C92.1739 68.136 92.9099 68.296 93.5499 68.424C94.2539 68.488 95.3099 68.552 96.7179 68.616C96.9739 68.616 97.1339 68.712 97.1979 68.904C97.1339 69.096 96.9739 69.224 96.7179 69.288C94.7979 69.288 92.6539 69.224 90.2859 69.096C87.9179 69.032 86.7019 69 86.6379 69Z" fill="black"/>
</svg>
