<svg width="105" height="58" viewBox="0 0 105 58" fill="none" xmlns="http://www.w3.org/2000/svg">
<path d="M-0.000937462 29C-0.000937462 20.2533 2.34573 13.2667 7.03906 8.04C11.7857 2.76 17.9191 0.119998 25.4391 0.119998C33.0657 0.119998 39.2257 2.76 43.9191 8.04C48.6657 13.3733 51.0391 20.36 51.0391 29C51.0391 37.7467 48.6924 44.7333 43.9991 49.96C39.2524 55.24 33.0924 57.88 25.5191 57.88C17.9457 57.88 11.7857 55.2667 7.03906 50.04C2.34573 44.8133 -0.000937462 37.8 -0.000937462 29ZM25.4391 56.84C30.6657 56.84 34.9324 54.28 38.2391 49.16C41.5457 43.9333 43.1991 37.2133 43.1991 29C43.1991 20.7867 41.5457 14.0933 38.2391 8.92C34.9857 3.74667 30.7191 1.16 25.4391 1.16C20.2124 1.16 15.9724 3.74667 12.7191 8.92C9.4124 14.0933 7.75906 20.7867 7.75906 29C7.75906 37.2133 9.4124 43.9333 12.7191 49.16C16.0257 54.28 20.2657 56.84 25.4391 56.84ZM66.3941 48.6C63.5674 48.6 61.1141 49.56 59.0341 51.48L59.5141 51.88C59.6207 51.9333 59.9941 52.1467 60.6341 52.52C61.2741 52.84 61.6741 53.0533 61.8341 53.16C63.0607 53.8 63.6741 54.6 63.6741 55.56C63.6741 56.2533 63.4341 56.8133 62.9541 57.24C62.4741 57.6667 61.8607 57.88 61.1141 57.88C60.1007 57.88 59.2741 57.3733 58.6341 56.36C57.9941 55.2933 57.7541 53.96 57.9141 52.36C57.9141 50.2267 59.2741 47.9067 61.9941 45.4C64.7674 42.8933 70.1007 39.16 77.9941 34.2C83.4874 30.84 87.4074 27.6667 89.7541 24.68C92.1007 21.64 93.2741 18.2533 93.2741 14.52C93.2741 10.5733 92.0474 7.37333 89.5941 4.92C87.1407 2.36 84.2607 1.08 80.9541 1.08C78.3941 1.08 75.6741 1.88 72.7941 3.48C71.3007 8.92 70.1541 12.3067 69.3541 13.64C68.3407 15.1333 67.0607 15.9333 65.5141 16.04C64.5007 16.04 63.7007 15.7467 63.1141 15.16C62.5274 14.5733 62.2341 13.8 62.2341 12.84C62.2341 10.6 63.3541 8.49333 65.5941 6.52C67.7807 4.54666 70.3407 3 73.2741 1.88C76.2607 0.706665 79.0341 0.119998 81.5941 0.119998C87.3007 0.119998 91.9674 1.42666 95.5941 4.04C99.2741 6.6 101.114 10.1733 101.114 14.76C101.114 21.9067 95.0874 28.3867 83.0341 34.2C82.3407 34.52 81.2474 35 79.7541 35.64L78.7941 36.12C67.3274 42.1467 60.7674 46.9467 59.1141 50.52C62.0474 47.8533 65.7541 46.52 70.2341 46.52C72.4741 46.52 75.7007 47.32 79.9141 48.92C84.1274 50.52 88.0207 51.32 91.5941 51.32C95.0074 51.32 97.6474 50.3067 99.5141 48.28C101.327 46.3067 102.794 42.4933 103.914 36.84C103.967 36.68 104.154 36.6267 104.474 36.68L104.634 36.84C104.634 37.0533 104.581 37.2933 104.474 37.56C104.421 37.7733 104.341 38.0933 104.234 38.52C104.181 38.8933 104.127 39.24 104.074 39.56C103.967 40.04 103.834 40.6 103.674 41.24C103.567 41.88 103.461 42.4133 103.354 42.84C103.301 43.2133 103.247 43.5333 103.194 43.8L102.314 47.4C101.941 49.0533 101.247 50.9467 100.234 53.08C99.7007 54.3067 98.6607 55.5067 97.1141 56.68C95.9941 57.48 94.3141 57.88 92.0741 57.88C87.9141 57.88 83.4874 56.3333 78.7941 53.24C74.2074 50.1467 70.0741 48.6 66.3941 48.6Z" fill="black"/>
</svg>
