<svg width="102" height="58" viewBox="0 0 102 58" fill="none" xmlns="http://www.w3.org/2000/svg">
<path d="M0.05375 29C0.05375 20.2533 2.40042 13.2667 7.09375 8.04C11.8404 2.76 17.9738 0.119998 25.4938 0.119998C33.1204 0.119998 39.2804 2.76 43.9738 8.04C48.7204 13.3733 51.0938 20.36 51.0938 29C51.0938 37.7467 48.7471 44.7333 44.0538 49.96C39.3071 55.24 33.1471 57.88 25.5738 57.88C18.0004 57.88 11.8404 55.2667 7.09375 50.04C2.40042 44.8133 0.05375 37.8 0.05375 29ZM25.4938 56.84C30.7204 56.84 34.9871 54.28 38.2938 49.16C41.6004 43.9333 43.2538 37.2133 43.2538 29C43.2538 20.7867 41.6004 14.0933 38.2938 8.92C35.0404 3.74667 30.7738 1.16 25.4938 1.16C20.2671 1.16 16.0271 3.74667 12.7738 8.92C9.46708 14.0933 7.81375 20.7867 7.81375 29C7.81375 37.2133 9.46708 43.9333 12.7738 49.16C16.0804 54.28 20.3204 56.84 25.4938 56.84ZM77.0888 57.88C71.6488 57.88 67.1954 56.6533 63.7288 54.2C60.2088 51.6933 58.4488 48.6533 58.4488 45.08C58.4488 42.52 59.3821 40.52 61.2488 39.08C63.1154 37.64 65.3554 37.1333 67.9688 37.56C67.2754 38.2 66.6354 39.3467 66.0488 41C65.4621 42.6 65.1688 44.1467 65.1688 45.64C65.1688 48.04 66.2621 50.5733 68.4488 53.24C70.6888 55.8 73.5688 57.08 77.0888 57.08C82.1554 57.08 86.1821 55.48 89.1688 52.28C92.1021 49.0267 93.5688 45.2133 93.5688 40.84C93.5688 37.16 92.3688 33.96 89.9688 31.24C87.6754 28.4667 84.8221 27.08 81.4088 27.08C79.8621 27.08 78.2354 27.32 76.5288 27.8C75.4088 28.28 74.3154 28.8133 73.2488 29.4C71.7021 30.2 70.6088 30.6 69.9688 30.6C68.7954 30.6 68.2088 30.1467 68.2088 29.24C68.2088 28.44 68.7421 27.8267 69.8088 27.4C70.2888 27.1333 71.0354 26.92 72.0488 26.76L74.6888 26.28C79.9688 25 83.8088 23.2667 86.2088 21.08C88.6621 18.84 89.8888 15.7467 89.8888 11.8C89.8888 8.33333 88.8488 5.69333 86.7688 3.88C84.6888 2.01333 81.7821 1.08 78.0488 1.08C75.4354 1.08 72.8221 1.82666 70.2088 3.32C69.9954 3.85333 69.6488 5 69.1688 6.76C68.6888 8.46667 68.3421 9.61333 68.1288 10.2C66.7954 14.36 65.1954 16.28 63.3288 15.96C61.1954 15.96 60.1288 14.7867 60.1288 12.44C60.1288 9.56 62.1021 6.78667 66.0488 4.12C70.1021 1.45333 74.3421 0.119998 78.7688 0.119998C84.3688 0.119998 88.8221 1.10666 92.1288 3.08C95.4888 5.05333 97.1688 7.85333 97.1688 11.48C97.1688 14.84 95.8888 17.6133 93.3288 19.8C92.2621 20.7067 90.8221 21.5867 89.0088 22.44C86.1821 23.7733 82.5288 25.08 78.0488 26.36L76.6888 26.76C80.4754 26.1733 83.0888 25.88 84.5288 25.88C89.3288 25.88 93.3021 27.24 96.4488 29.96C99.6488 32.5733 101.249 36.2 101.249 40.84C101.249 45.2667 99.0354 49.2133 94.6088 52.68C90.1821 56.1467 84.3421 57.88 77.0888 57.88Z" fill="black"/>
</svg>
