<svg width="101" height="59" viewBox="0 0 101 59" fill="none" xmlns="http://www.w3.org/2000/svg">
<path d="M0.96 30C0.96 21.2533 3.30667 14.2667 8 9.04C12.7467 3.76 18.88 1.12 26.4 1.12C34.0267 1.12 40.1867 3.76 44.88 9.04C49.6267 14.3733 52 21.36 52 30C52 38.7467 49.6533 45.7333 44.96 50.96C40.2133 56.24 34.0533 58.88 26.48 58.88C18.9067 58.88 12.7467 56.2667 8 51.04C3.30667 45.8133 0.96 38.8 0.96 30ZM26.4 57.84C31.6267 57.84 35.8933 55.28 39.2 50.16C42.5067 44.9333 44.16 38.2133 44.16 30C44.16 21.7867 42.5067 15.0933 39.2 9.92C35.9467 4.74667 31.68 2.16 26.4 2.16C21.1733 2.16 16.9333 4.74667 13.68 9.92C10.3733 15.0933 8.72 21.7867 8.72 30C8.72 38.2133 10.3733 44.9333 13.68 50.16C16.9867 55.28 21.2267 57.84 26.4 57.84ZM88.075 58H82.635C82.5817 58 81.5683 58.0267 79.595 58.08C77.6217 58.1867 75.8083 58.24 74.155 58.24C73.995 58.24 73.8617 58.16 73.755 58C73.8083 57.84 73.9417 57.7333 74.155 57.68C75.3283 57.6267 76.1817 57.5733 76.715 57.52C77.3017 57.4133 77.915 57.28 78.555 57.12C79.2483 56.96 79.7283 56.6933 79.995 56.32C80.2617 55.8933 80.5283 55.4667 80.795 55.04C81.115 54.56 81.3283 53.84 81.435 52.88C81.5417 51.8667 81.6217 50.8533 81.675 49.84C81.7817 48.8267 81.8617 47.4133 81.915 45.6V45.12H56.155L55.915 44.64L79.435 15.2C79.3283 5.49333 80.715 0.639999 83.595 0.639999C85.4617 0.639999 86.395 1.81333 86.395 4.16C86.395 6.66666 84.075 10.88 79.435 16.8L57.435 44.24H81.915V29.28C84.955 28.64 87.195 27.44 88.635 25.68H88.795V44.24H100.875V45.12H88.795V45.6C88.8483 47.4133 88.9017 48.8267 88.955 49.84C89.0617 50.8533 89.1683 51.8667 89.275 52.88C89.3817 53.84 89.5683 54.56 89.835 55.04C90.155 55.4667 90.4483 55.8933 90.715 56.32C90.9817 56.6933 91.435 56.96 92.075 57.12C92.7683 57.28 93.3817 57.4133 93.915 57.52C94.5017 57.5733 95.3817 57.6267 96.555 57.68C96.715 57.68 96.8483 57.76 96.955 57.92C96.9017 58.08 96.7683 58.1867 96.555 58.24C94.9017 58.24 93.0883 58.1867 91.115 58.08C89.1417 58.0267 88.1283 58 88.075 58Z" fill="black"/>
</svg>
