<svg width="20" height="20" viewBox="0 0 20 20" fill="none" xmlns="http://www.w3.org/2000/svg">
<path d="M7.34168 1.6665L4.32501 4.6915" stroke="#292D32" stroke-miterlimit="10" stroke-linecap="round" stroke-linejoin="round"/>
<path d="M12.6583 1.6665L15.675 4.6915" stroke="#292D32" stroke-miterlimit="10" stroke-linecap="round" stroke-linejoin="round"/>
<path d="M1.66666 6.54167C1.66666 5 2.49166 4.875 3.51666 4.875H16.4833C17.5083 4.875 18.3333 5 18.3333 6.54167C18.3333 8.33333 17.5083 8.20833 16.4833 8.20833H3.51666C2.49166 8.20833 1.66666 8.33333 1.66666 6.54167Z" stroke="#292D32"/>
<path d="M8.13333 11.6665V14.6248" stroke="#292D32" stroke-linecap="round"/>
<path d="M11.9667 11.6665V14.6248" stroke="#292D32" stroke-linecap="round"/>
<path d="M2.91666 8.3335L4.09166 15.5335C4.35832 17.1502 4.99999 18.3335 7.38332 18.3335H12.4083C15 18.3335 15.3833 17.2002 15.6833 15.6335L17.0833 8.3335" stroke="#292D32" stroke-linecap="round"/>
</svg>
